<svg
   xmlns:dc="http://purl.org/dc/elements/1.1/"
   xmlns:cc="http://creativecommons.org/ns#"
   xmlns:rdf="http://www.w3.org/1999/02/22-rdf-syntax-ns#"
   xmlns:svg="http://www.w3.org/2000/svg"
   xmlns="http://www.w3.org/2000/svg"
   id="SVGRoot"
   version="1.1"
   viewBox="-1 -1.4 19 19"
   height="40px"
   width="40px">
  <defs
     id="defs1366" />
  <metadata
     id="metadata1369">
    <rdf:RDF>
      <cc:Work
         rdf:about="">
        <dc:format>image/svg+xml</dc:format>
        <dc:type
           rdf:resource="http://purl.org/dc/dcmitype/StillImage" />
        <dc:title></dc:title>
      </cc:Work>
    </rdf:RDF>
  </metadata>
  <g
     id="layer1">
    <path
       id="path1929"
       d="m 5.4375,15.625 c 0,0 9.647615,1.041452 8.5625,-8.5625 C 13.410492,1.8449813 11.375,0.375 11.375,0.375 c 0,0 0.338096,2.6481356 -5.625,5.1875 C 0.04498275,7.9919624 3.6875,14.75 3.6875,14.75 c 0,0 0.1306281,-2.696505 1.6875,-5.1875 1.25,-2 3.5,-2.375 3.5,-2.375 0,0 -1.964946,0.6896951 -2.9375,3.5 -0.8499432,2.456007 -0.5,4.9375 -0.5,4.9375 z"
       style="opacity:1;vector-effect:none;fill:#4ba011;fill-opacity:0.86092716;stroke:#4ba011;stroke-width:0.18897638;stroke-linecap:butt;stroke-linejoin:miter;stroke-miterlimit:4;stroke-dasharray:none;stroke-dashoffset:0;stroke-opacity:0" />
    <path
       id="path1939"
       d="m 5.4375,15.625 c 0,0 5.141795,0.585249 7.5,-2.75 1.320249,-1.867251 1.662575,-4.0874253 0.625,-8.3125 0,0 -0.3125,7.25 -8.125,11.0625 z"
       style="opacity:1;vector-effect:none;fill:#3a7e0d;fill-opacity:0.99494952;stroke:none;stroke-width:0.18897638;stroke-linecap:butt;stroke-linejoin:miter;stroke-miterlimit:4;stroke-dasharray:none;stroke-dashoffset:0;stroke-opacity:1" />
    <circle
       r="0.8125"
       cy="1.875"
       cx="4.125"
       id="path1941"
       style="opacity:1;fill:#3a7e0d;fill-opacity:0.99607843;stroke:none;stroke-width:0.18897638;stroke-linecap:round;stroke-linejoin:round;stroke-miterlimit:4;stroke-dasharray:none;stroke-opacity:0;paint-order:stroke fill markers" />
    <circle
       r="0.625"
       cy="2.25"
       cx="8.8125"
       id="path1945"
       style="opacity:1;fill:#3a7e0d;fill-opacity:0.86975718;stroke:none;stroke-width:0.18897638;stroke-linecap:round;stroke-linejoin:round;stroke-miterlimit:4;stroke-dasharray:none;stroke-opacity:0;paint-order:stroke fill markers" />
    <circle
       r="0.28125"
       cy="3.34375"
       cx="6.71875"
       id="path1949"
       style="opacity:1;fill:#4ba011;fill-opacity:0.86092715;stroke:none;stroke-width:0.18897638;stroke-linecap:round;stroke-linejoin:round;stroke-miterlimit:4;stroke-dasharray:none;stroke-opacity:0;paint-order:stroke fill markers" />
    <circle
       r="0.46875"
       cy="4.65625"
       cx="2.65625"
       id="path1951"
       style="opacity:1;fill:#3a7e0d;fill-opacity:0.99607843;stroke:none;stroke-width:0.18897638;stroke-linecap:round;stroke-linejoin:round;stroke-miterlimit:4;stroke-dasharray:none;stroke-opacity:0;paint-order:stroke fill markers" />
    <circle
       r="0.40625"
       cy="4.40625"
       cx="4.65625"
       id="path1953"
       style="opacity:1;fill:#4ba011;fill-opacity:0.86092715;stroke:none;stroke-width:0.18897638;stroke-linecap:round;stroke-linejoin:round;stroke-miterlimit:4;stroke-dasharray:none;stroke-opacity:0;paint-order:stroke fill markers" />
  </g>
</svg>
